<svg xmlns="http://www.w3.org/2000/svg" width="1885" height="204" viewBox="0 0 1885 204" fill="none" style="max-width: 100%; max-height: 100%; width: auto; height: auto; transform: scale(1);"><path d="M106.53 146.362L49.4299 82.7285H26.4194V146.362H0V4.32244H26.4194V65.6837H48.8618L103.973 4.32244H137.211L70.7359 74.2061L139.483 146.362H106.53Z" fill="#0455bf" data-element-index="0" style="cursor: pointer; fill: rgb(4, 85, 191);" class="selected-element"></path><path d="M293.728 72.5016C313.235 77.4257 322.988 88.6942 322.988 106.307C322.988 120.132 317.59 130.265 306.795 136.704C296 143.143 278.766 146.362 255.093 146.362H159.074V4.32244H246.854C270.338 4.32244 287.478 7.25793 298.273 13.1289C309.068 18.8105 314.466 27.9958 314.466 40.6847C314.466 54.6993 307.553 65.305 293.728 72.5016ZM246.286 21.3672H185.493V64.8315H250.832C263.71 64.8315 273.085 63.127 278.956 59.7181C285.016 56.1197 288.046 50.4381 288.046 42.6732C288.046 35.2872 284.637 29.8896 277.819 26.4807C271.191 23.0717 260.68 21.3672 246.286 21.3672ZM251.116 129.318C266.835 129.318 278.293 127.424 285.489 123.636C292.875 119.848 296.569 113.788 296.569 105.455C296.569 97.3113 293.065 91.3456 286.058 87.5579C279.24 83.7702 268.35 81.8763 253.388 81.8763H185.493V129.318H251.116Z" fill="#0455bf" data-element-index="1" style="cursor: pointer; fill: rgb(4, 85, 191);" class=""></path><path d="M421.408 0.629395C449.059 0.629395 468.471 5.26937 479.645 14.5493C491.008 23.8293 496.69 37.5598 496.69 55.7409V146.362H471.407V121.932C458.718 140.681 436.181 150.056 403.795 150.056C381.827 150.056 365.539 145.889 354.934 137.556C344.328 129.034 339.025 117.576 339.025 103.182C339.025 90.1146 343.855 79.9824 353.513 72.7857C363.172 65.589 375.861 61.9907 391.58 61.9907H470.27V54.8887C470.27 42.5785 466.198 33.488 458.055 27.617C450.101 21.746 437.506 18.8105 420.272 18.8105C404.364 18.8105 391.959 21.1778 383.058 25.9125C374.156 30.4578 369.611 36.897 369.422 45.23H343.286C343.476 34.6243 347.169 25.9125 354.365 19.0946C361.562 12.2767 370.747 7.542 381.921 4.89059C393.095 2.04979 406.257 0.629395 421.408 0.629395ZM407.204 131.874C414.78 131.874 422.071 131.022 429.079 129.318C436.086 127.613 442.714 125.056 448.964 121.647C455.403 118.049 460.517 113.125 464.304 106.875C468.282 100.436 470.27 92.9554 470.27 84.433V79.0355H396.409C387.319 79.0355 379.933 81.1187 374.251 85.2853C368.759 89.2624 366.013 95.228 366.013 103.182C366.013 113.409 369.895 120.795 377.66 125.341C385.425 129.696 395.273 131.874 407.204 131.874Z" fill="#0455bf" data-element-index="2" style="cursor: pointer; fill: rgb(4, 85, 191);" class=""></path><path d="M662.637 4.32244H689.056V146.362H662.637V84.433H554.686V146.362H528.267V4.32244H554.686V65.9678H662.637V4.32244Z" fill="#0455bf" data-element-index="3" style="cursor: pointer; fill: rgb(4, 85, 191);" class=""></path><path d="M883.937 4.32244V22.7876H809.224V146.362H782.805V22.7876H708.092V4.32244H883.937Z" fill="#0455bf" data-element-index="4" style="cursor: pointer; fill: rgb(4, 85, 191);" class=""></path><path d="M1000.45 0.629395C1029.99 0.629395 1051.39 7.35262 1064.65 20.7991C1078.1 34.2455 1084.82 52.1426 1084.82 74.4902C1084.82 97.5954 1078.1 115.966 1064.65 129.602C1051.39 143.238 1029.9 150.056 1000.16 150.056C965.695 150.056 942.685 141.249 931.132 123.636V203.178H904.713V4.32244H929.712V29.6056C940.886 10.2881 964.464 0.629395 1000.45 0.629395ZM997.607 131.59C1038.14 131.59 1058.4 112.557 1058.4 74.4902C1058.4 37.5598 1038.14 19.0946 997.607 19.0946C978.1 19.0946 962.097 23.924 949.598 33.5827C937.288 43.2414 931.132 54.1311 931.132 66.2519V84.7171C931.132 96.6485 937.288 107.443 949.598 117.102C962.097 126.761 978.1 131.59 997.607 131.59Z" fill="#0455bf" data-element-index="5" style="cursor: pointer; fill: rgb(4, 85, 191);" class=""></path><path fill-rule="evenodd" clip-rule="evenodd" d="M1644.54 23.9563H1158.24C1137.12 23.9563 1120 41.0754 1120 62.1929V90.4213C1120 111.539 1137.12 128.658 1158.24 128.658H1644.54C1665.65 128.658 1682.77 111.539 1682.77 90.4213V62.1929C1682.77 41.0754 1665.65 23.9563 1644.54 23.9563ZM1158.24 4.32474C1126.28 4.32474 1100.37 30.2332 1100.37 62.1929V90.4213C1100.37 122.381 1126.28 148.289 1158.24 148.289H1644.54C1676.5 148.289 1702.4 122.381 1702.4 90.4213V62.1929C1702.4 30.2332 1676.5 4.32474 1644.54 4.32474H1158.24Z" fill="#0455bf" data-element-index="6" style="cursor: pointer; fill: rgb(4, 85, 191);" class=""></path><path d="M1857.82 4.32474H1884.24V146.365H1857.82V84.4353H1749.87V146.365H1723.45V4.32474H1749.87V65.9701H1857.82V4.32474Z" fill="#0455bf" data-element-index="7" style="cursor: pointer; fill: rgb(4, 85, 191);" class=""></path></svg>