<svg xmlns="http://www.w3.org/2000/svg" width="522" height="309" viewBox="0 0 522 309" fill="none" style="max-width: 100%; max-height: 100%; width: auto; height: auto; transform: scale(1);"><path fill-rule="evenodd" clip-rule="evenodd" d="M403.328 20.5094H118.317C64.0865 20.5094 20.1237 64.4723 20.1237 118.703V189.759C20.1237 243.99 64.0865 287.953 118.317 287.953H403.328C457.559 287.953 501.522 243.99 501.522 189.759V118.703C501.522 64.4723 457.559 20.5094 403.328 20.5094ZM118.317 0.451172C53.0087 0.451172 0.0654297 53.3944 0.0654297 118.703V189.759C0.0654297 255.068 53.0086 308.011 118.317 308.011H403.328C468.637 308.011 521.58 255.068 521.58 189.759V118.703C521.58 53.3944 468.637 0.451172 403.328 0.451172H118.317Z" fill="#0455bf" data-element-index="0" style="cursor: pointer; fill: rgb(4, 85, 191);" class="selected-element"></path><path d="M206.013 227.778L145.798 161.88H121.532V227.778H93.6707V80.6842H121.532V144.229H145.198L203.317 80.6842H238.368L168.266 153.054L240.765 227.778H206.013Z" fill="#0455bf" data-element-index="1" style="cursor: pointer; fill: rgb(4, 85, 191);" class=""></path><path d="M410.315 151.289C431.003 156.389 441.347 168.058 441.347 186.298C441.347 200.615 435.623 211.108 424.174 217.776C412.726 224.444 394.448 227.778 369.341 227.778H267.509V80.6842H360.604C385.51 80.6842 403.687 83.7242 415.136 89.8041C426.584 95.6878 432.309 105.2 432.309 118.34C432.309 132.854 424.978 143.837 410.315 151.289ZM360.002 98.3355H295.528V143.346H364.822C378.48 143.346 388.422 141.581 394.649 138.051C401.076 134.325 404.29 128.441 404.29 120.4C404.29 112.751 400.674 107.161 393.443 103.631C386.413 100.101 375.267 98.3355 360.002 98.3355ZM365.123 210.127C381.794 210.127 393.945 208.166 401.578 204.243C409.411 200.321 413.328 194.045 413.328 185.415C413.328 176.982 409.612 170.804 402.181 166.881C394.95 162.959 383.401 160.998 367.533 160.998H295.528V210.127H365.123Z" fill="#0455bf" data-element-index="2" style="cursor: pointer; fill: rgb(4, 85, 191);" class=""></path></svg>